<svg xmlns="http://www.w3.org/2000/svg" width="450" height="90" viewBox="0 0 450 90" fill="none">
  <defs>
    <linearGradient id="bg" x1="0" y1="0" x2="450" y2="90" gradientUnits="userSpaceOnUse">
      <stop stop-color="#1D83F2"/>
      <stop offset="1" stop-color="#1768D8"/>
    </linearGradient>
  </defs>
  <rect width="450" height="90" rx="18" fill="url(#bg)"/>
  <g transform="translate(20 15)">
    <circle cx="21" cy="14" r="10" fill="#F2BE93"/>
    <path d="M11 14c1-10 17-15 23-4 3 6-3 12-6 15-5-5-9-9-17-11Z" fill="#1F2F55"/>
    <path d="M11 26c0-7 5-12 12-12 8 0 13 5 13 12v35H11V26Z" fill="#172F91"/>
    <path d="M16 33c-6 6-12 3-14-4" stroke="#F2BE93" stroke-width="5" stroke-linecap="round"/>
    <path d="M31 32c8 3 10 10 9 17" stroke="#F2BE93" stroke-width="5" stroke-linecap="round"/>
    <path d="M49 11c0-10 20-14 30-3 8 9 0 22-7 25-12-5-22-9-23-22Z" fill="#152A48"/>
    <circle cx="63" cy="17" r="13" fill="#F2BE93"/>
    <path d="M45 36c0-11 7-19 18-19 12 0 20 8 20 19v40H45V36Z" fill="#173DB7"/>
    <path d="M58 44c8 0 14-5 18-12" stroke="white" stroke-width="3" stroke-linecap="round"/>
    <circle cx="105" cy="25" r="11" fill="#DFA57E"/>
    <path d="M92 25c2-12 24-14 31 0-9 2-18 3-31 0Z" fill="#152A48"/>
    <path d="M89 40c0-9 6-16 16-16 11 0 18 7 18 16v36H89V40Z" fill="#1BA7D8"/>
    <path d="M102 47c-6 4-10 0-12-5" stroke="#DFA57E" stroke-width="5" stroke-linecap="round"/>
    <path d="M118 45c5 1 8 4 10 9" stroke="#DFA57E" stroke-width="5" stroke-linecap="round"/>
  </g>
  <text x="177" y="37" fill="white" font-family="Arial, Helvetica, sans-serif" font-size="28" font-weight="400">Acessível com</text>
  <text x="177" y="69" fill="white" font-family="Arial, Helvetica, sans-serif" font-size="34" font-weight="700">VLibras</text>
</svg>
