<svg xmlns="http://www.w3.org/2000/svg" width="60" height="44" viewBox="0 0 60 44" fill="none">
  <rect width="60" height="44" rx="8" fill="#1A73E8"/>
  <path d="M26.3 26.1c-2.1-1.4-4-2.9-5.8-4.4-1.1-.9-1.2-2.3-.4-3.2.8-.9 2.1-.8 3.2.1l2.9 2.4V9.9c0-1.3.9-2.2 2.1-2.2 1.1 0 2 .9 2 2.2v7.5l1.1-8.9c.2-1.2 1.1-2 2.2-1.9 1.1.1 1.9 1.1 1.8 2.3l-1 8.6 2.6-7.4c.4-1.1 1.5-1.7 2.6-1.3 1 .4 1.6 1.5 1.2 2.6l-2.9 8.1 3.8-5.8c.7-1 1.9-1.3 2.9-.7.9.6 1.2 1.9.6 2.9l-4.7 7.1c-.9 1.4-1.7 2.7-1.8 4.3l-.1 1.7c-.2 4.1-3.3 7.2-7.4 7.2h-1.6c-2.4 0-4.7-1.2-6.1-3.1l-2.9-4.1c-.7-1-.5-2.3.5-3 1-.7 2.3-.5 3 .5l2.4 3.4Z" fill="white"/>
  <path d="M17.3 11.4a1.3 1.3 0 0 1 1.8-.1l4.5 4.1a1.3 1.3 0 1 1-1.8 1.9l-4.5-4.1a1.3 1.3 0 0 1 0-1.8ZM21.1 7.1a1.3 1.3 0 0 1 1.8.4l3.1 5.1a1.3 1.3 0 1 1-2.2 1.4l-3.1-5.1a1.3 1.3 0 0 1 .4-1.8Z" fill="white"/>
</svg>
